<svg width="24" height="28" viewBox="0 0 24 28" fill="none" xmlns="http://www.w3.org/2000/svg">
<path d="M11.9997 13.1493C10.5984 12.1124 8.4958 10.298 2.46936 10.298V23.2807C8.4958 23.2807 10.5984 25.0951 11.9997 26.132V13.1493Z" stroke="white" stroke-width="3" stroke-linecap="round" stroke-linejoin="round"/>
<path d="M12.0005 13.1493C13.4018 12.1124 15.5044 10.298 21.5308 10.298V23.2807C15.5044 23.2807 13.4018 25.0951 12.0005 26.132V13.1493Z" stroke="white" stroke-width="3" stroke-linecap="round" stroke-linejoin="round"/>
<path d="M19.0558 1.85229H6.53657C6.18683 1.85229 5.84404 1.95012 5.54696 2.13473L2.25146 4.18255L5.54696 6.23035C5.84404 6.41496 6.18683 6.51278 6.53657 6.51278H19.0558C20.3428 6.51278 21.3861 5.46951 21.3861 4.18255C21.3861 2.89558 20.3428 1.85229 19.0558 1.85229Z" stroke="white" stroke-width="3" stroke-linecap="round" stroke-linejoin="round"/>
<path d="M15.7234 1.95258V6.51288" stroke="white" stroke-width="3" stroke-linecap="round" stroke-linejoin="round"/>
</svg>
