<svg width="28" height="28" viewBox="0 0 28 28" fill="none" xmlns="http://www.w3.org/2000/svg">
<path d="M18.1781 17.2813C18.1432 17.2256 18.1247 17.1611 18.1247 17.0954C18.1247 17.0296 18.1432 16.9651 18.1781 16.9094C18.208 16.8508 18.2534 16.8015 18.3093 16.7668C18.3652 16.7321 18.4295 16.7133 18.4953 16.7125C18.6798 16.7021 18.8587 16.6451 19.0152 16.5469C19.1717 16.4486 19.3008 16.3123 19.3904 16.1506C19.4799 15.989 19.5271 15.8072 19.5274 15.6224C19.5277 15.4376 19.4812 15.2558 19.3922 15.0938L16.7781 10.9485C16.7571 10.8808 16.7571 10.8083 16.7781 10.7407C16.7868 10.704 16.8029 10.6696 16.8255 10.6395C16.8481 10.6094 16.8766 10.5842 16.9094 10.5657C17.064 10.4625 17.1915 10.3237 17.2813 10.161C17.3772 9.99471 17.4278 9.8061 17.4278 9.61411C17.4278 9.42211 17.3772 9.2335 17.2813 9.06723L14.4703 4.41879C14.4182 4.3421 14.348 4.27932 14.2661 4.23593C14.1841 4.19254 14.0928 4.16986 14 4.16986C13.9073 4.16986 13.8159 4.19254 13.7339 4.23593C13.652 4.27932 13.5818 4.3421 13.5297 4.41879L10.7188 9.06723C10.6228 9.2335 10.5722 9.42211 10.5722 9.61411C10.5722 9.8061 10.6228 9.99471 10.7188 10.161C10.8146 10.3263 10.9499 10.4653 11.1125 10.5657C11.1783 10.5959 11.2294 10.6509 11.2547 10.7188C11.2757 10.7865 11.2757 10.8589 11.2547 10.9266L8.60782 15.0938C8.50188 15.2589 8.4423 15.4495 8.43533 15.6456C8.42836 15.8416 8.47424 16.0359 8.56819 16.2082C8.66213 16.3804 8.80067 16.5242 8.96928 16.6245C9.1379 16.7248 9.33038 16.7778 9.52657 16.7782C9.59236 16.779 9.65669 16.7977 9.71259 16.8324C9.76849 16.8671 9.81385 16.9164 9.84375 16.975C9.8787 17.0308 9.89723 17.0952 9.89723 17.161C9.89723 17.2268 9.8787 17.2912 9.84375 17.3469L7.65625 20.5297C7.54836 20.6892 7.48447 20.8743 7.47102 21.0663C7.45758 21.2584 7.49507 21.4506 7.57969 21.6235C7.6718 21.7965 7.80872 21.9416 7.97612 22.0436C8.14352 22.1456 8.33525 22.2007 8.53125 22.2032H12.3594C12.5044 22.2032 12.6435 22.2608 12.7461 22.3633C12.8486 22.4659 12.9063 22.605 12.9063 22.75V26.0313C12.9063 26.3214 13.0215 26.5996 13.2266 26.8047C13.4317 27.0098 13.7099 27.125 14 27.125C14.2901 27.125 14.5683 27.0098 14.7734 26.8047C14.9785 26.5996 15.0938 26.3214 15.0938 26.0313V22.75C15.0938 22.605 15.1514 22.4659 15.2539 22.3633C15.3565 22.2608 15.4956 22.2032 15.6406 22.2032H19.4688C19.6696 22.2036 19.8667 22.1487 20.0384 22.0445C20.2101 21.9403 20.3498 21.7909 20.4422 21.6125C20.5268 21.4396 20.5643 21.2474 20.5509 21.0554C20.5374 20.8633 20.4735 20.6782 20.3656 20.5188L18.1781 17.2813Z" fill="white"/>
<path d="M8.73906 11.1235L7.64531 9.24221C7.62398 9.19785 7.61291 9.14925 7.61291 9.10002C7.61291 9.0508 7.62398 9.0022 7.64531 8.95784C7.661 8.91221 7.68688 8.87076 7.72099 8.83664C7.75511 8.80253 7.79656 8.77664 7.84219 8.76096C7.94172 8.7076 8.02489 8.62822 8.08281 8.53127C8.14246 8.43022 8.17393 8.31502 8.17393 8.19768C8.17393 8.08033 8.14246 7.96514 8.08281 7.86408L6.98906 5.98284C6.96773 5.93847 6.95666 5.88987 6.95666 5.84065C6.95666 5.79142 6.96773 5.74282 6.98906 5.69846C7.00666 5.65392 7.03322 5.61347 7.06708 5.5796C7.10095 5.54574 7.1414 5.51919 7.18594 5.50159C7.30667 5.42126 7.39563 5.30136 7.4375 5.16252C7.49702 5.05943 7.52835 4.9425 7.52835 4.82346C7.52835 4.70442 7.49702 4.58749 7.4375 4.4844L5.425 1.17033C5.35943 1.08826 5.27622 1.022 5.18155 0.976468C5.08688 0.930932 4.98318 0.907288 4.87813 0.907288C4.77307 0.907288 4.66937 0.930932 4.5747 0.976468C4.48003 1.022 4.39683 1.08826 4.33125 1.17033L2.29688 4.4844C2.23736 4.58749 2.20602 4.70442 2.20602 4.82346C2.20602 4.9425 2.23736 5.05943 2.29688 5.16252C2.36484 5.29001 2.47796 5.38752 2.61406 5.43596C2.65884 5.45414 2.69887 5.48232 2.73109 5.51834C2.76332 5.55435 2.78689 5.59726 2.8 5.64377C2.81898 5.68685 2.82879 5.73341 2.82879 5.78049C2.82879 5.82757 2.81898 5.87413 2.8 5.91721L1.70625 7.8094C1.62389 7.90884 1.57269 8.03038 1.55907 8.15878C1.54545 8.28719 1.57002 8.41676 1.62969 8.53127C1.71069 8.64474 1.83198 8.72299 1.96875 8.75002C2.01367 8.76994 2.05419 8.79856 2.08799 8.83423C2.12178 8.8699 2.14817 8.91191 2.16563 8.95784C2.18681 9.0003 2.19784 9.0471 2.19784 9.09455C2.19784 9.14201 2.18681 9.18881 2.16563 9.23127L1.07188 11.1235C1.00991 11.2237 0.977081 11.3392 0.977081 11.4571C0.977081 11.5749 1.00991 11.6904 1.07188 11.7906C1.1299 11.8934 1.21412 11.9789 1.31595 12.0384C1.41778 12.098 1.53359 12.1295 1.65156 12.1297H3.83906V14.1422C3.83906 14.4323 3.9543 14.7105 4.15942 14.9156C4.36453 15.1207 4.64273 15.236 4.93281 15.236C5.22289 15.236 5.50109 15.1207 5.70621 14.9156C5.91133 14.7105 6.02656 14.4323 6.02656 14.1422V12.1297H8.21406C8.32246 12.1244 8.42792 12.0928 8.52131 12.0375C8.6147 11.9822 8.6932 11.905 8.75 11.8125C8.80882 11.7068 8.83878 11.5875 8.83686 11.4665C8.83494 11.3456 8.80121 11.2272 8.73906 11.1235Z" fill="white"/>
<path d="M27.0266 11.1235L25.9328 9.24223C25.9003 9.15023 25.9003 9.04986 25.9328 8.95786C25.9436 8.88336 25.9781 8.81432 26.0312 8.76098C26.1669 8.72479 26.2864 8.64386 26.3703 8.5313C26.43 8.43024 26.4614 8.31505 26.4614 8.1977C26.4614 8.08036 26.43 7.96516 26.3703 7.86411L25.2766 5.98286C25.2552 5.93849 25.2442 5.8899 25.2442 5.84067C25.2442 5.79145 25.2552 5.74285 25.2766 5.69848C25.2922 5.65286 25.3181 5.61141 25.3522 5.57729C25.3864 5.54317 25.4278 5.51729 25.4734 5.50161C25.6033 5.44206 25.7107 5.34238 25.7797 5.21723C25.8392 5.11415 25.8705 4.99721 25.8705 4.87817C25.8705 4.75914 25.8392 4.6422 25.7797 4.53911L23.7891 1.25786C23.7235 1.17579 23.6403 1.10953 23.5456 1.06399C23.4509 1.01846 23.3472 0.994812 23.2422 0.994812C23.1371 0.994812 23.0334 1.01846 22.9388 1.06399C22.8441 1.10953 22.7609 1.17579 22.6953 1.25786L20.5625 4.48442C20.503 4.58751 20.4716 4.70445 20.4716 4.82348C20.4716 4.94252 20.503 5.05946 20.5625 5.16255C20.6294 5.28679 20.7378 5.38357 20.8687 5.43598C20.9147 5.45417 20.9562 5.4822 20.9902 5.5181C21.0242 5.55399 21.0499 5.5969 21.0656 5.6438C21.0868 5.68626 21.0978 5.73306 21.0978 5.78052C21.0978 5.82797 21.0868 5.87477 21.0656 5.91723L19.9719 7.80942C19.9122 7.91047 19.8808 8.02567 19.8808 8.14302C19.8808 8.26036 19.9122 8.37556 19.9719 8.47661C20.0346 8.60407 20.1444 8.70213 20.2781 8.75005C20.3235 8.76743 20.3645 8.79435 20.3986 8.82897C20.4326 8.8636 20.4588 8.90513 20.4754 8.95076C20.492 8.99639 20.4986 9.04505 20.4947 9.09345C20.4909 9.14185 20.4767 9.18886 20.4531 9.2313L19.3594 11.1235C19.3029 11.2256 19.2732 11.3404 19.2732 11.4571C19.2732 11.5738 19.3029 11.6886 19.3594 11.7907C19.4174 11.8934 19.5016 11.9789 19.6034 12.0385C19.7053 12.098 19.8211 12.1295 19.9391 12.1297H22.1266V14.1422C22.1266 14.4323 22.2418 14.7105 22.4469 14.9156C22.652 15.1207 22.9302 15.236 23.2203 15.236C23.5104 15.236 23.7886 15.1207 23.9937 14.9156C24.1988 14.7105 24.3141 14.4323 24.3141 14.1422V12.1297H26.5016C26.6195 12.1295 26.7353 12.098 26.8372 12.0385C26.939 11.9789 27.0232 11.8934 27.0812 11.7907C27.1352 11.6854 27.1587 11.5672 27.1491 11.4493C27.1394 11.3314 27.097 11.2185 27.0266 11.1235Z" fill="white"/>
</svg>
