<svg width="26" height="26" viewBox="0 0 26 26" fill="none" xmlns="http://www.w3.org/2000/svg">
<path d="M0.421875 24.4406C0.421875 24.7307 0.537109 25.0089 0.742227 25.214C0.947345 25.4191 1.22554 25.5344 1.51562 25.5344H8.07812C8.36821 25.5344 8.64641 25.4191 8.85152 25.214C9.05664 25.0089 9.17188 24.7307 9.17188 24.4406V22.2531C9.16085 22.1158 9.09841 21.9877 8.99702 21.8944C8.89563 21.8011 8.76277 21.7496 8.625 21.75H0.96875C0.82371 21.75 0.68461 21.8076 0.582051 21.9102C0.479492 22.0127 0.421875 22.1518 0.421875 22.2969V24.4406Z" fill="white"/>
<path d="M25.5781 22.2531C25.5671 22.1158 25.5047 21.9877 25.4033 21.8944C25.3019 21.8011 25.169 21.7496 25.0312 21.75H17.375C17.23 21.75 17.0909 21.8076 16.9883 21.9102C16.8857 22.0127 16.8281 22.1518 16.8281 22.2969V24.4844C16.8281 24.7745 16.9434 25.0527 17.1485 25.2578C17.3536 25.4629 17.6318 25.5781 17.9219 25.5781H24.4844C24.7745 25.5781 25.0527 25.4629 25.2578 25.2578C25.4629 25.0527 25.5781 24.7745 25.5781 24.4844V22.2531Z" fill="white"/>
<path d="M0.96875 15.6906H8.625C8.625 15.6906 9.17188 15.6906 9.17188 16.2374V18.9718C9.17188 18.9718 9.17188 19.5187 8.625 19.5187H0.96875C0.96875 19.5187 0.421875 19.5187 0.421875 18.9718V16.2374C0.421875 16.2374 0.421875 15.6906 0.96875 15.6906Z" fill="white"/>
<path d="M0.96875 9.67493H25.0312C25.0312 9.67493 25.5781 9.67493 25.5781 10.2218V12.9562C25.5781 12.9562 25.5781 13.5031 25.0312 13.5031H0.96875C0.96875 13.5031 0.421875 13.5031 0.421875 12.9562V10.2218C0.421875 10.2218 0.421875 9.67493 0.96875 9.67493Z" fill="white"/>
<path d="M17.375 15.6906H25.0312C25.0312 15.6906 25.5781 15.6906 25.5781 16.2374V18.9718C25.5781 18.9718 25.5781 19.5187 25.0312 19.5187H17.375C17.375 19.5187 16.8281 19.5187 16.8281 18.9718V16.2374C16.8281 16.2374 16.8281 15.6906 17.375 15.6906Z" fill="white"/>
<path d="M0.968751 7.53119H25.0312C25.152 7.53439 25.2701 7.49589 25.3657 7.42218C25.4613 7.34847 25.5286 7.24404 25.5562 7.1265C25.6072 7.00089 25.6096 6.86085 25.5631 6.73354C25.5167 6.60622 25.4246 6.5007 25.3047 6.43744L13.2734 0.531191C13.1888 0.487982 13.0951 0.465454 13 0.465454C12.9049 0.465454 12.8112 0.487982 12.7266 0.531191L0.695314 6.43744C0.592179 6.49798 0.511733 6.59066 0.466298 6.70129C0.420863 6.81192 0.412943 6.93438 0.443751 7.04994C0.454749 7.18146 0.51488 7.30402 0.61217 7.3932C0.70946 7.48238 0.836771 7.53165 0.968751 7.53119Z" fill="white"/>
</svg>
