<svg width="26" height="24" viewBox="0 0 26 24" fill="none" xmlns="http://www.w3.org/2000/svg">
<path fill-rule="evenodd" clip-rule="evenodd" d="M13.1542 1.18396C13.0764 1.05581 12.965 0.951446 12.832 0.882193C12.699 0.81294 12.5496 0.781451 12.4 0.791146C12.2504 0.800842 12.1063 0.851352 11.9834 0.937188C11.8605 1.02302 11.7634 1.1409 11.7028 1.27802L7.98407 9.71521L10.8366 8.40052C10.9345 8.35542 11.0403 8.33004 11.148 8.32583C11.2557 8.32162 11.3631 8.33867 11.4642 8.37599C11.5653 8.41332 11.6581 8.47019 11.7372 8.54337C11.8164 8.61654 11.8803 8.70459 11.9254 8.80247C11.9705 8.90036 11.9959 9.00617 12.0001 9.11386C12.0043 9.22156 11.9873 9.32903 11.9499 9.43013C11.9126 9.53124 11.8557 9.62401 11.7826 9.70314C11.7094 9.78226 11.6213 9.8462 11.5234 9.8913L5.36891 12.7263L10.8595 23.211H12.3372L15.5933 15.4432C15.6643 15.2728 15.7907 15.1314 15.952 15.0418L23.2397 11.008L19.1261 3.40646C19.0728 3.3083 19.0001 3.22205 18.9123 3.153C18.8246 3.08394 18.7236 3.03354 18.6157 3.00486C18.5078 2.97619 18.3951 2.96986 18.2847 2.98625C18.1742 3.00265 18.0682 3.04142 17.9733 3.10021L16.5263 3.9949L17.8202 6.39896C17.9155 6.58969 17.9329 6.81005 17.8685 7.01336C17.8042 7.21666 17.6632 7.38692 17.4755 7.48804C17.2877 7.58917 17.068 7.61321 16.8628 7.55507C16.6577 7.49694 16.4832 7.36119 16.3764 7.17661L15.1295 4.86005L15.1263 4.86115L14.505 3.70177L13.1925 1.26271C13.1783 1.23717 13.1656 1.21088 13.1542 1.18396ZM23.8019 12.5721L17.4144 16.1082L20.7055 23.211H25.0313C25.1533 23.211 25.2738 23.1838 25.3839 23.1313C25.4941 23.0788 25.5912 23.0025 25.6681 22.9077C25.745 22.813 25.7998 22.7023 25.8285 22.5837C25.8572 22.4652 25.8591 22.3417 25.8341 22.2222L23.8019 12.5721ZM18.8975 23.211L16.3874 17.7926L14.1156 23.211H18.8975ZM0.234852 22.0243L4.2161 14.0618L9.00673 23.211H0.968758C0.829068 23.2108 0.69174 23.1749 0.569791 23.1068C0.447842 23.0387 0.345311 22.9405 0.271917 22.8217C0.198522 22.7028 0.156695 22.5672 0.1504 22.4276C0.144105 22.2881 0.173551 22.1493 0.235946 22.0243H0.234852Z" fill="white"/>
</svg>
