<svg width="28" height="28" viewBox="0 0 28 28" fill="none" xmlns="http://www.w3.org/2000/svg">
<path d="M26.0312 11.8125H23.8438C23.7203 11.811 23.5978 11.8333 23.4828 11.8781C23.4476 11.8973 23.4081 11.9073 23.368 11.9073C23.3279 11.9073 23.2884 11.8973 23.2531 11.8781C23.2171 11.8596 23.1857 11.8333 23.1611 11.8011C23.1365 11.769 23.1194 11.7318 23.1109 11.6922C22.8839 10.5238 22.4346 9.40989 21.7875 8.41094C21.7602 8.36855 21.7457 8.31918 21.7457 8.26875C21.7457 8.21832 21.7602 8.16895 21.7875 8.12656C21.8109 8.08085 21.8472 8.04301 21.892 8.01774C21.9367 7.99246 21.9878 7.98086 22.0391 7.98438H22.2031C22.7833 7.98438 23.3397 7.75391 23.7499 7.34367C24.1602 6.93344 24.3906 6.37704 24.3906 5.79688V4.70312C24.3906 4.41304 24.2754 4.13484 24.0703 3.92973C23.8652 3.72461 23.587 3.60938 23.2969 3.60938H21.1094C20.8193 3.60938 20.5411 3.72461 20.336 3.92973C20.1309 4.13484 20.0156 4.41304 20.0156 4.70312V5.79688C20.0167 5.82728 20.0114 5.85758 20.0001 5.88583C19.9888 5.91408 19.9717 5.93966 19.95 5.96094L19.8516 6.04844C19.8373 6.06299 19.8203 6.07455 19.8015 6.08244C19.7827 6.09033 19.7626 6.0944 19.7422 6.0944C19.7218 6.0944 19.7016 6.09033 19.6829 6.08244C19.6641 6.07455 19.6471 6.06299 19.6328 6.04844C18.5139 5.19633 17.2162 4.6092 15.8375 4.33125C15.791 4.32174 15.7476 4.30074 15.7113 4.27017C15.675 4.23961 15.647 4.20044 15.6297 4.15625C15.6057 4.11468 15.5931 4.06753 15.5931 4.01953C15.5931 3.97153 15.6057 3.92438 15.6297 3.88281C15.9685 3.50551 16.1656 3.02223 16.1875 2.51562V1.96875C16.1875 1.67867 16.0723 1.40047 15.8671 1.19535C15.662 0.990234 15.3838 0.875 15.0938 0.875H12.9062C12.6162 0.875 12.338 0.990234 12.1329 1.19535C11.9277 1.40047 11.8125 1.67867 11.8125 1.96875V2.51562C11.814 3.02298 11.9919 3.51402 12.3156 3.90469C12.3396 3.94626 12.3523 3.99341 12.3523 4.04141C12.3523 4.0894 12.3396 4.13656 12.3156 4.17812C12.2983 4.22232 12.2703 4.26148 12.234 4.29205C12.1977 4.32261 12.1543 4.34361 12.1078 4.35313C10.7786 4.62976 9.52727 5.19754 8.44375 6.01562C8.39385 6.05946 8.3297 6.08364 8.26328 6.08364C8.19686 6.08364 8.13271 6.05946 8.08281 6.01562C8.08281 5.95 7.98438 5.91719 7.98438 5.81875V4.725C7.98438 4.43492 7.86914 4.15672 7.66402 3.9516C7.4589 3.74648 7.18071 3.63125 6.89062 3.63125H4.70312C4.41304 3.63125 4.13484 3.74648 3.92973 3.9516C3.72461 4.15672 3.60938 4.43492 3.60938 4.725V5.81875C3.60938 6.39891 3.83984 6.95531 4.25008 7.36555C4.66031 7.77578 5.21671 8.00625 5.79688 8.00625H5.96094C6.01357 8.00329 6.06599 8.01502 6.11235 8.04013C6.1587 8.06524 6.19716 8.10274 6.22344 8.14844C6.24737 8.19201 6.25992 8.24091 6.25992 8.29063C6.25992 8.34034 6.24737 8.38924 6.22344 8.43281C5.57632 9.43176 5.12704 10.5457 4.9 11.7141C4.89022 11.7531 4.87257 11.7897 4.84812 11.8217C4.82366 11.8537 4.79293 11.8803 4.75781 11.9C4.72256 11.9191 4.68308 11.9292 4.64297 11.9292C4.60285 11.9292 4.56338 11.9191 4.52812 11.9C4.41126 11.8463 4.28481 11.8165 4.15625 11.8125H1.96875C1.67867 11.8125 1.40047 11.9277 1.19535 12.1329C0.990234 12.338 0.875 12.6162 0.875 12.9062L0.875 14C0.875 14.5802 1.10547 15.1366 1.5157 15.5468C1.92594 15.957 2.48234 16.1875 3.0625 16.1875C3.60988 16.1858 4.13674 15.979 4.53906 15.6078C4.57386 15.5759 4.61661 15.554 4.6628 15.5444C4.709 15.5348 4.75693 15.5378 4.80156 15.5531C4.84725 15.5653 4.88918 15.5887 4.92355 15.6212C4.95793 15.6536 4.98367 15.6941 4.99844 15.7391C5.24724 16.717 5.65359 17.6479 6.20156 18.4953C6.22888 18.5377 6.24341 18.5871 6.24341 18.6375C6.24341 18.6879 6.22888 18.7373 6.20156 18.7797C6.18076 18.8228 6.14811 18.859 6.10742 18.8842C6.06674 18.9094 6.01972 18.9225 5.97187 18.9219H4.70312C4.41304 18.9219 4.13484 19.0371 3.92973 19.2422C3.72461 19.4473 3.60938 19.7255 3.60938 20.0156V21.1094C3.60938 21.6895 3.83984 22.2459 4.25008 22.6562C4.66031 23.0664 5.21671 23.2969 5.79688 23.2969C6.37704 23.2969 6.93344 23.0664 7.34367 22.6562C7.75391 22.2459 7.98438 21.6895 7.98438 21.1094C7.98465 21.0483 8.00811 20.9897 8.05 20.9453C8.09705 20.8888 8.16348 20.8519 8.2363 20.8418C8.30911 20.8317 8.38309 20.8491 8.44375 20.8906C8.91844 21.2502 9.42772 21.5616 9.96406 21.8203C10.0021 21.8366 10.043 21.8449 10.0844 21.8449C10.1257 21.8449 10.1667 21.8366 10.2047 21.8203C10.2719 21.7866 10.323 21.7276 10.3469 21.6562L10.7953 20.0375C10.81 19.9763 10.8041 19.912 10.7783 19.8547C10.7526 19.7973 10.7086 19.75 10.6531 19.7203C10.4576 19.6216 10.2677 19.512 10.0844 19.3922C10.0509 19.3679 10.0229 19.3369 10.0021 19.3011C9.98142 19.2653 9.96844 19.2255 9.96406 19.1844C9.96003 19.1445 9.96479 19.1043 9.97802 19.0665C9.99125 19.0287 10.0126 18.9943 10.0406 18.9656L10.6422 18.375C10.8481 18.169 10.9639 17.8897 10.9639 17.5984C10.9639 17.3072 10.8481 17.0278 10.6422 16.8219C10.4362 16.6159 10.1569 16.5002 9.86563 16.5002C9.57436 16.5002 9.29502 16.6159 9.08906 16.8219L8.53125 17.4125C8.50262 17.4405 8.46819 17.4619 8.43039 17.4751C8.39259 17.4883 8.35234 17.4931 8.3125 17.4891C8.23014 17.4777 8.15551 17.4345 8.10469 17.3687C7.60526 16.6111 7.25621 15.7645 7.07656 14.875C7.06619 14.8352 7.06575 14.7934 7.07529 14.7533C7.08482 14.7133 7.10404 14.6762 7.13125 14.6453C7.15666 14.6148 7.18842 14.5902 7.22431 14.5732C7.26019 14.5562 7.29935 14.5472 7.33906 14.5469H8.73906C9.02914 14.5469 9.30734 14.4316 9.51246 14.2265C9.71758 14.0214 9.83281 13.7432 9.83281 13.4531C9.83281 13.163 9.71758 12.8848 9.51246 12.6797C9.30734 12.4746 9.02914 12.3594 8.73906 12.3594H7.30625C7.26654 12.359 7.22738 12.3501 7.19149 12.3331C7.15561 12.3161 7.12385 12.2915 7.09844 12.2609C7.07122 12.23 7.05201 12.193 7.04247 12.1529C7.03294 12.1129 7.03338 12.0711 7.04375 12.0312C7.2234 11.1418 7.57245 10.2951 8.07188 9.5375C8.1227 9.47171 8.19733 9.42851 8.27969 9.41719C8.31953 9.41315 8.35978 9.41792 8.39758 9.43115C8.43538 9.44438 8.46981 9.46575 8.49844 9.49375L9.87656 10.8828C9.97876 10.9842 10.1 11.0644 10.2332 11.1188C10.3665 11.1732 10.5092 11.2008 10.6531 11.2C10.9401 11.1988 11.215 11.0849 11.4188 10.8828C11.5213 10.7811 11.6026 10.6602 11.6582 10.5269C11.7137 10.3936 11.7423 10.2506 11.7423 10.1062C11.7423 9.96186 11.7137 9.8189 11.6582 9.68562C11.6026 9.55234 11.5213 9.43137 11.4188 9.32969L10.0406 7.95156C10.0126 7.92293 9.99125 7.8885 9.97802 7.8507C9.96479 7.8129 9.96003 7.77266 9.96406 7.73281C9.97538 7.65045 10.0186 7.57583 10.0844 7.525C10.842 7.02557 11.6886 6.67652 12.5781 6.49687C12.618 6.4865 12.6597 6.48606 12.6998 6.4956C12.7398 6.50513 12.7769 6.52435 12.8078 6.55156C12.8383 6.57698 12.8629 6.60873 12.8799 6.64462C12.8969 6.68051 12.9059 6.71967 12.9062 6.75938V8.53125C12.9062 8.82133 13.0215 9.09953 13.2266 9.30465C13.4317 9.50977 13.7099 9.625 14 9.625C14.2901 9.625 14.5683 9.50977 14.7734 9.30465C14.9785 9.09953 15.0938 8.82133 15.0938 8.53125V6.75938C15.0941 6.71967 15.1031 6.68051 15.1201 6.64462C15.1371 6.60873 15.1617 6.57698 15.1922 6.55156C15.2231 6.52435 15.2602 6.50513 15.3002 6.4956C15.3403 6.48606 15.382 6.4865 15.4219 6.49687C16.3114 6.67652 17.158 7.02557 17.9156 7.525C17.9814 7.57583 18.0246 7.65045 18.0359 7.73281C18.04 7.77266 18.0352 7.8129 18.022 7.8507C18.0087 7.8885 17.9874 7.92293 17.9594 7.95156L16.5812 9.32969C16.4787 9.43137 16.3974 9.55234 16.3418 9.68562C16.2863 9.8189 16.2577 9.96186 16.2577 10.1062C16.2577 10.2506 16.2863 10.3936 16.3418 10.5269C16.3974 10.6602 16.4787 10.7811 16.5812 10.8828C16.785 11.0849 17.0599 11.1988 17.3469 11.2C17.4908 11.2008 17.6335 11.1732 17.7668 11.1188C17.9 11.0644 18.0212 10.9842 18.1234 10.8828L19.4688 9.49375C19.4974 9.46575 19.5318 9.44438 19.5696 9.43115C19.6074 9.41792 19.6477 9.41315 19.6875 9.41719C19.7699 9.42851 19.8445 9.47171 19.8953 9.5375C20.3947 10.2951 20.7438 11.1418 20.9234 12.0312C20.9338 12.0711 20.9342 12.1129 20.9247 12.1529C20.9152 12.193 20.896 12.23 20.8688 12.2609C20.8433 12.2915 20.8116 12.3161 20.7757 12.3331C20.7398 12.3501 20.7006 12.359 20.6609 12.3594H19.2609C18.9709 12.3594 18.6927 12.4746 18.4875 12.6797C18.2824 12.8848 18.1672 13.163 18.1672 13.4531C18.1672 13.7432 18.2824 14.0214 18.4875 14.2265C18.6927 14.4316 18.9709 14.5469 19.2609 14.5469H20.6938C20.7335 14.5472 20.7726 14.5562 20.8085 14.5732C20.8444 14.5902 20.8761 14.6148 20.9016 14.6453C20.9288 14.6762 20.948 14.7133 20.9575 14.7533C20.9671 14.7934 20.9666 14.8352 20.9563 14.875C20.7766 15.7645 20.4276 16.6111 19.9281 17.3687C19.8773 17.4345 19.8027 17.4777 19.7203 17.4891C19.6805 17.4931 19.6402 17.4883 19.6024 17.4751C19.5646 17.4619 19.5302 17.4405 19.5016 17.4125L18.9109 16.8109C18.7035 16.605 18.4228 16.4899 18.1305 16.4909C17.8382 16.4919 17.5583 16.609 17.3523 16.8164C17.1464 17.0238 17.0313 17.3045 17.0323 17.5968C17.0333 17.8891 17.1504 18.169 17.3578 18.375L17.9594 18.9656C18.0116 19.0263 18.0389 19.1044 18.0359 19.1844C18.0316 19.2255 18.0186 19.2653 17.9979 19.3011C17.9771 19.3369 17.9491 19.3679 17.9156 19.3922L17.325 19.7312C17.2695 19.7575 17.2256 19.8031 17.2014 19.8595C17.1772 19.9159 17.1745 19.9792 17.1938 20.0375L17.6203 21.6562C17.6314 21.6949 17.6509 21.7306 17.6773 21.7608C17.7038 21.7911 17.7366 21.8151 17.7734 21.8312C17.8096 21.8472 17.8487 21.8555 17.8883 21.8555C17.9278 21.8555 17.9669 21.8472 18.0031 21.8312C18.5613 21.5682 19.0894 21.2455 19.5781 20.8688C19.7203 20.7703 19.8406 20.8687 19.95 20.9453C19.9919 20.9897 20.0153 21.0483 20.0156 21.1094C20.0156 21.6895 20.2461 22.2459 20.6563 22.6562C21.0666 23.0664 21.623 23.2969 22.2031 23.2969C22.7833 23.2969 23.3397 23.0664 23.7499 22.6562C24.1602 22.2459 24.3906 21.6895 24.3906 21.1094V20.0156C24.3906 19.7255 24.2754 19.4473 24.0703 19.2422C23.8652 19.0371 23.587 18.9219 23.2969 18.9219H22.0172C21.9682 18.9209 21.9204 18.9073 21.8782 18.8824C21.836 18.8575 21.801 18.8221 21.7766 18.7797C21.7526 18.7361 21.7401 18.6872 21.7401 18.6375C21.7401 18.5878 21.7526 18.5389 21.7766 18.4953C22.3245 17.6479 22.7309 16.717 22.9797 15.7391C22.9945 15.6941 23.0202 15.6536 23.0546 15.6212C23.0889 15.5887 23.1309 15.5653 23.1766 15.5531C23.2212 15.5378 23.2691 15.5348 23.3153 15.5444C23.3615 15.554 23.4043 15.5759 23.4391 15.6078C23.8469 15.9841 24.3826 16.1913 24.9375 16.1875C25.5177 16.1875 26.0741 15.957 26.4843 15.5468C26.8945 15.1366 27.125 14.5802 27.125 14V12.9062C27.125 12.6162 27.0098 12.338 26.8046 12.1329C26.5995 11.9277 26.3213 11.8125 26.0312 11.8125Z" fill="white"/>
<path d="M26.0312 24.9375H17.5766C17.5165 24.9351 17.4587 24.9137 17.4115 24.8763C17.3643 24.839 17.3302 24.7877 17.3141 24.7297L14.7328 15.0938C14.6828 14.9377 14.5853 14.8011 14.4539 14.7031C14.3225 14.6051 14.1639 14.5505 14 14.5469C13.841 14.5457 13.6855 14.5933 13.5545 14.6832C13.4234 14.7732 13.3232 14.9012 13.2672 15.05L10.6422 24.7188C10.6273 24.7765 10.5932 24.8275 10.5455 24.8633C10.4978 24.8991 10.4393 24.9175 10.3797 24.9156H1.96875C1.67867 24.9156 1.40047 25.0309 1.19535 25.236C0.990234 25.4411 0.875 25.7193 0.875 26.0094C0.875 26.2995 0.990234 26.5777 1.19535 26.7828C1.40047 26.9879 1.67867 27.1031 1.96875 27.1031H26.0312C26.3213 27.1031 26.5995 26.9879 26.8046 26.7828C27.0098 26.5777 27.125 26.2995 27.125 26.0094C27.125 25.7193 27.0098 25.4411 26.8046 25.236C26.5995 25.0309 26.3213 24.9156 26.0312 24.9156V24.9375Z" fill="white"/>
</svg>
