<svg width="27" height="27" viewBox="0 0 27 27" fill="none" xmlns="http://www.w3.org/2000/svg">
<path d="M13.125 0.9375V2.8125" stroke="white" stroke-width="2" stroke-linecap="round" stroke-linejoin="round"/>
<path d="M18.75 2.8125L19.6875 1.875" stroke="white" stroke-width="2" stroke-linecap="round" stroke-linejoin="round"/>
<path d="M7.5 2.8125L6.5625 1.875" stroke="white" stroke-width="2" stroke-linecap="round" stroke-linejoin="round"/>
<path d="M25.3125 25.3125H20.9117C17.0326 25.3125 13.7936 22.3547 13.4424 18.4915L13.2266 16.1174C13.1646 15.4352 13.5016 14.7785 14.0921 14.4311C15.1626 13.8014 16.5318 14.441 16.736 15.666L17.25 18.75" stroke="white" stroke-width="2" stroke-linecap="round" stroke-linejoin="round"/>
<path d="M25.3125 18.7436H22.2666C21.3268 18.7436 20.5322 18.048 20.4081 17.1165L19.2292 8.2749C19.0147 6.66607 17.148 5.88264 15.8496 6.85648C15.3148 7.25758 15 7.88709 15 8.5556V14.0561" stroke="white" stroke-width="2" stroke-linecap="round" stroke-linejoin="round"/>
<path d="M0.937271 25.3125H5.33816C9.21718 25.3125 12.4562 22.3547 12.8074 18.4915L13.0232 16.1174C13.0852 15.4352 12.7481 14.7785 12.1577 14.4311C11.0872 13.8014 9.71794 14.441 9.51377 15.666L8.99978 18.75" stroke="white" stroke-width="2" stroke-linecap="round" stroke-linejoin="round"/>
<path d="M0.937271 18.7427H3.98318C4.92293 18.7427 5.71753 18.047 5.84173 17.1155L7.0206 8.27392C7.23512 6.6651 9.10176 5.88166 10.4002 6.8555C10.935 7.2566 11.2498 7.88611 11.2498 8.55463V14.0552" stroke="white" stroke-width="2" stroke-linecap="round" stroke-linejoin="round"/>
</svg>
