<svg width="28" height="27" viewBox="0 0 28 27" fill="none" xmlns="http://www.w3.org/2000/svg">
<path d="M1.70624 2.74997C3.72967 3.61404 4.15624 5.82341 4.15624 7.52966V15C4.15264 15.9152 4.33168 16.8219 4.68289 17.667C5.03409 18.5122 5.55039 19.2787 6.20155 19.9219C6.32686 20.0502 6.47656 20.1521 6.64185 20.2218C6.80715 20.2914 6.98469 20.3272 7.16405 20.3272C7.3434 20.3272 7.52095 20.2914 7.68624 20.2218C7.85153 20.1521 8.00124 20.0502 8.12655 19.9219C8.25354 19.7958 8.35432 19.6458 8.4231 19.4806C8.49188 19.3155 8.52728 19.1383 8.52728 18.9593C8.52728 18.7804 8.49188 18.6032 8.4231 18.4381C8.35432 18.2729 8.25354 18.1229 8.12655 17.9968C7.33624 17.1995 6.89216 16.1227 6.89061 15V7.52966C6.89061 3.96404 5.43592 1.37185 2.77811 0.234349C2.44452 0.0893083 2.06697 0.0827277 1.72853 0.216054C1.39008 0.349381 1.11846 0.611693 0.973423 0.945286C0.828383 1.27888 0.821802 1.65643 0.955129 1.99487C1.08846 2.33331 1.35077 2.60493 1.68436 2.74997H1.70624Z" fill="white"/>
<path d="M13.4422 19.9219C13.702 20.1555 14.0413 20.2807 14.3906 20.272C14.7399 20.2632 15.0725 20.121 15.3203 19.8747C15.568 19.6283 15.7121 19.2965 15.7228 18.9473C15.7336 18.5981 15.6102 18.258 15.3781 17.9969C14.5878 17.1995 14.1437 16.1227 14.1422 15V7.52968C14.1422 3.96405 12.6765 1.37186 10.0297 0.234363C9.86468 0.162477 9.68705 0.124143 9.5071 0.121596C9.32716 0.119048 9.14851 0.152338 8.98156 0.219524C8.81461 0.286711 8.6627 0.386452 8.53469 0.512934C8.40667 0.639416 8.30511 0.790111 8.23591 0.956238C8.16371 1.12055 8.12483 1.29755 8.12154 1.477C8.11824 1.65644 8.1506 1.83476 8.21673 2.0016C8.28286 2.16845 8.38144 2.32052 8.50677 2.44898C8.6321 2.57745 8.78169 2.67976 8.94685 2.74999C10.9812 3.61405 11.4078 5.82343 11.4078 7.52968V15C11.4046 15.9142 11.5827 16.8199 11.9319 17.6647C12.2811 18.5096 12.7945 19.2767 13.4422 19.9219Z" fill="white"/>
<path d="M20.6937 19.9219C20.819 20.0502 20.9687 20.1521 21.134 20.2218C21.2993 20.2914 21.4769 20.3272 21.6562 20.3272C21.8356 20.3272 22.0131 20.2914 22.1784 20.2218C22.3437 20.1521 22.4934 20.0502 22.6187 19.9219C22.7457 19.7958 22.8465 19.6458 22.9153 19.4806C22.9841 19.3155 23.0195 19.1383 23.0195 18.9593C23.0195 18.7804 22.9841 18.6032 22.9153 18.4381C22.8465 18.2729 22.7457 18.1229 22.6187 17.9968C21.8284 17.1995 21.3843 16.1227 21.3828 15V7.52966C21.3828 3.96404 19.9281 1.37185 17.2703 0.234349C16.9367 0.0893083 16.5592 0.0827277 16.2207 0.216054C15.8823 0.349381 15.6107 0.611693 15.4656 0.945286C15.3206 1.27888 15.314 1.65643 15.4473 1.99487C15.5806 2.33331 15.843 2.60493 16.1765 2.74997C18.2 3.61404 18.6265 5.82341 18.6265 7.52966V15C18.6258 15.9167 18.8083 16.8244 19.1633 17.6696C19.5183 18.5148 20.0386 19.2806 20.6937 19.9219Z" fill="white"/>
<path d="M25.9547 24.1874C24.2375 24.3296 23.0344 22.4921 23.0234 22.4703C22.9266 22.307 22.7889 22.1718 22.624 22.0779C22.4591 21.984 22.2726 21.9346 22.0828 21.9346C21.893 21.9346 21.7065 21.984 21.5416 22.0779C21.3767 22.1718 21.239 22.307 21.1422 22.4703C20.8253 22.9835 20.3851 23.4094 19.8617 23.7093C19.3384 24.0092 18.7484 24.1735 18.1453 24.1874C17.6018 24.1759 17.0712 24.0198 16.6079 23.7353C16.1447 23.4509 15.7655 23.0482 15.5094 22.5687C15.4277 22.3961 15.3022 22.2479 15.1454 22.1388C14.9887 22.0297 14.8061 21.9636 14.6158 21.947C14.4256 21.9304 14.2343 21.964 14.061 22.0442C13.8877 22.1245 13.7385 22.2488 13.6281 22.4046C13.2192 22.9226 12.7061 23.3489 12.1221 23.656C11.538 23.9631 10.896 24.1441 10.2375 24.1874C9.63074 24.1491 9.04146 23.9687 8.51713 23.661C7.9928 23.3532 7.54807 22.9266 7.21875 22.4156C7.12613 22.2653 6.99853 22.1397 6.84683 22.0495C6.69513 21.9592 6.52385 21.9071 6.34761 21.8974C6.17137 21.8877 5.99541 21.9208 5.83475 21.9939C5.67409 22.067 5.5335 22.1779 5.425 22.3171C5.425 22.3171 3.82812 24.3187 2.02344 24.1874C1.74438 24.1869 1.47568 24.2931 1.27235 24.4843C1.06902 24.6754 0.946431 24.937 0.929688 25.2156C0.929688 25.5057 1.04492 25.7839 1.25004 25.989C1.45516 26.1941 1.73336 26.3093 2.02344 26.3093H2.26406C3.70724 26.2418 5.08276 25.6776 6.15781 24.7124C6.20868 24.6707 6.27246 24.6478 6.33828 24.6478C6.4041 24.6478 6.46788 24.6707 6.51875 24.7124C7.50754 25.7111 8.83393 26.3041 10.2375 26.3749C11.6936 26.3486 13.0975 25.8279 14.2188 24.8984C14.2686 24.8545 14.3328 24.8304 14.3992 24.8304C14.4656 24.8304 14.5298 24.8545 14.5797 24.8984C15.0454 25.37 15.6008 25.7436 16.2132 25.9972C16.8256 26.2508 17.4825 26.3793 18.1453 26.3749C19.5423 26.3761 20.8888 25.8531 21.9188 24.9093C21.9713 24.8667 22.037 24.8434 22.1047 24.8434C22.1724 24.8434 22.238 24.8667 22.2906 24.9093C22.7932 25.4012 23.3911 25.785 24.0476 26.0371C24.7041 26.2891 25.4052 26.4041 26.1078 26.3749C26.2566 26.3656 26.402 26.326 26.535 26.2584C26.6679 26.1908 26.7856 26.0968 26.8809 25.9821C26.9762 25.8673 27.047 25.7343 27.0889 25.5912C27.1309 25.4481 27.1432 25.298 27.125 25.1499C27.0919 24.8695 26.9517 24.6126 26.7335 24.4332C26.5154 24.2538 26.2363 24.1657 25.9547 24.1874Z" fill="white"/>
</svg>
