<svg width="18" height="15" viewBox="0 0 18 15" fill="none" xmlns="http://www.w3.org/2000/svg">
<path d="M1 12.0769C1 12.7567 1.55012 13.3077 2.22871 13.3077H15.7713C16.4498 13.3077 17 12.7567 17 12.0769V9.5735C15.9362 9.2847 15.1537 8.31081 15.1537 7.15385C15.1537 5.99689 15.9362 5.02299 17 4.73419V2.23077C17 1.55104 16.4498 1 15.7713 1H2.22871C1.55012 1 1 1.55103 1 2.23077V4.72878C2.07409 5.01066 2.86654 5.98955 2.86654 7.15385C2.86654 8.31814 2.07409 9.29703 1 9.57892V12.0769Z" stroke="#2C4B6C" stroke-width="2" stroke-linecap="round" stroke-linejoin="round"/>
<path d="M5.94849 10.2308L12.1023 4.07693" stroke="#2C4B6C" stroke-linecap="round" stroke-linejoin="round"/>
<path d="M6.56387 5.3077C6.90374 5.3077 7.17926 5.03218 7.17926 4.69231C7.17926 4.35245 6.90374 4.07693 6.56387 4.07693C6.22401 4.07693 5.94849 4.35245 5.94849 4.69231C5.94849 5.03218 6.22401 5.3077 6.56387 5.3077Z" stroke="#2C4B6C" stroke-linecap="round" stroke-linejoin="round"/>
<path d="M11.487 10.2308C11.8268 10.2308 12.1024 9.95525 12.1024 9.61538C12.1024 9.27552 11.8268 9 11.487 9C11.1471 9 10.8716 9.27552 10.8716 9.61538C10.8716 9.95525 11.1471 10.2308 11.487 10.2308Z" stroke="#2C4B6C" stroke-linecap="round" stroke-linejoin="round"/>
</svg>