<svg width="24" height="24" viewBox="0 0 24 24" fill="none" xmlns="http://www.w3.org/2000/svg">
<path d="M17.7692 9.69231C19.8934 9.69231 21.6154 7.97032 21.6154 5.84615C21.6154 3.72198 19.8934 2 17.7692 2C15.6451 2 13.9231 3.72198 13.9231 5.84615C13.9231 7.97032 15.6451 9.69231 17.7692 9.69231Z" fill="#EB4335" stroke="#EB4335" stroke-width="3" stroke-linecap="round" stroke-linejoin="round"/>
<path d="M16.5118 13.5384V15.8978C16.5118 16.4995 16.7508 17.0766 17.1763 17.5021C17.6017 17.9275 18.3214 18.1666 18.9231 18.1666H2C2.60173 18.1666 3.32135 17.9275 3.74685 17.5021C4.17232 17.0766 4.41137 16.4995 4.41137 15.8978L4.41135 10.3579C4.41135 8.75326 5.04878 7.21437 6.18342 6.07974C7.31805 4.94511 8.85694 4.30768 10.4615 4.30768" stroke="#161D23" stroke-width="3" stroke-linecap="round" stroke-linejoin="round"/>
<path d="M8.9231 22H12" stroke="#161D23" stroke-width="3" stroke-linecap="round" stroke-linejoin="round"/>
</svg>